<?xml version="1.0" encoding="UTF-8"?>
<svg width="16px" height="16px" viewBox="0 0 16 16" version="1.1" xmlns="http://www.w3.org/2000/svg" xmlns:xlink="http://www.w3.org/1999/xlink">
    <!-- Generator: Sketch 49.2 (51160) - http://www.bohemiancoding.com/sketch -->
    <title>icon/operationStats/unknown</title>
    <desc>Created with Sketch.</desc>
    <defs></defs>
    <g id="icon/operationStats/unknown" stroke="none" stroke-width="1" fill="none" fill-rule="evenodd">
        <circle id="Oval" fill="#EAB62A" cx="8" cy="8" r="7"></circle>
        <g id="icon/cncstatus/running" transform="translate(6.000000, 4.000000)" fill="#262D45" stroke="#262D45" stroke-width="0.6">
            <path d="M2.6802444,4.08452138 L2.56619145,4.1496945 C2.43584521,4.22301426 2.35437882,4.36150713 2.3299389,4.57331976 L2.28105906,5.05397149 C2.25661914,5.27393075 2.15071283,5.37983707 1.93075356,5.37983707 C1.71894094,5.37983707 1.59674134,5.27393075 1.5885947,5.04582485 L1.56415479,4.49185336 L1.56415479,4.44297352 C1.56415479,4.05193483 1.75967413,3.7586558 2.08553971,3.56313646 L2.18329939,3.50610998 C2.77800407,3.16395112 3.12830957,2.95213849 3.12830957,2.22708758 C3.12830957,1.64052953 2.66395112,1.2413442 2.04480652,1.2413442 C1.45010183,1.2413442 1.07535642,1.59164969 0.896130346,2.29226069 C0.83910387,2.51221996 0.716904277,2.61812627 0.488798371,2.61812627 C0.195519348,2.61812627 0,2.49592668 0,2.25967413 C0,2.21894094 0,2.17820774 0.016293279,2.1293279 C0.244399185,1.29022403 0.855397149,0.5 2.05295316,0.5 C3.36456212,0.5 4,1.37983707 4,2.23523422 C4,3.19653768 3.53564155,3.61201629 2.6802444,4.08452138 Z M1.92260692,6.5 C2.23217923,6.5 2.48472505,6.75254582 2.48472505,7.06211813 C2.48472505,7.37169043 2.23217923,7.62423625 1.92260692,7.62423625 C1.61303462,7.62423625 1.3604888,7.37169043 1.3604888,7.06211813 C1.3604888,6.75254582 1.61303462,6.5 1.92260692,6.5 Z" id="?"></path>
        </g>
    </g>
</svg>