<?xml version="1.0" encoding="UTF-8"?>
<svg width="32px" height="32px" viewBox="0 0 32 32" version="1.1" xmlns="http://www.w3.org/2000/svg" xmlns:xlink="http://www.w3.org/1999/xlink">
    <!-- Generator: Sketch 49.2 (51160) - http://www.bohemiancoding.com/sketch -->
    <title>icon/help</title>
    <desc>Created with Sketch.</desc>
    <defs>
        <linearGradient x1="50%" y1="0%" x2="50%" y2="144.98291%" id="linearGradient-1">
            <stop stop-color="#00ECE0" offset="0%"></stop>
            <stop stop-color="#01C6FD" offset="100%"></stop>
        </linearGradient>
    </defs>
    <g id="icon/help" stroke="none" stroke-width="1" fill="none" fill-rule="evenodd">
        <g>
            <rect id="bound" fill="#D8D8D8" opacity="0" x="0" y="0" width="32" height="32"></rect>
            <path d="M2.16216216,16 C2.16216216,8.35718919 8.35718919,2.16216216 16,2.16216216 C23.6423784,2.16216216 29.8378378,8.35718919 29.8378378,16 C29.8378378,23.6423784 23.6423784,29.8378378 16,29.8378378 C8.35718919,29.8378378 2.16216216,23.6423784 2.16216216,16 Z" id="Info" stroke="url(#linearGradient-1)" stroke-width="2" stroke-linecap="round" stroke-linejoin="round"></path>
            <path d="M17.3237188,16.9212308 L17.1017779,17.0480542 C16.8481312,17.1907304 16.689602,17.4602301 16.6420433,17.872406 L16.5469257,18.8077283 C16.499367,19.2357571 16.293279,19.4418451 15.8652502,19.4418451 C15.4530743,19.4418451 15.2152805,19.2357571 15.1994275,18.7918754 L15.1518688,17.7138768 L15.1518688,17.6187593 C15.1518688,16.8578191 15.5323389,16.287114 16.1664557,15.9066439 L16.3566907,15.7956735 C17.5139539,15.1298508 18.1956294,14.7176749 18.1956294,13.306765 C18.1956294,12.1653548 17.292013,11.3885617 16.0871911,11.3885617 C14.9299279,11.3885617 14.2006936,12.0702372 13.8519293,13.4335884 C13.7409589,13.8616172 13.5031651,14.0677052 13.0592833,14.0677052 C12.4885782,14.0677052 12.1081081,13.8299114 12.1081081,13.3701767 C12.1081081,13.2909121 12.1081081,13.2116475 12.1398139,13.11653 C12.5836957,11.4836792 13.7726647,9.94594595 16.103044,9.94594595 C18.6553641,9.94594595 19.8918919,11.6580613 19.8918919,13.3226179 C19.8918919,15.1932625 18.9882754,16.0017614 17.3237188,16.9212308 Z M15.8493973,21.1627677 C16.4518082,21.1627677 16.9432487,21.6542082 16.9432487,22.2566191 C16.9432487,22.8590301 16.4518082,23.3504706 15.8493973,23.3504706 C15.2469863,23.3504706 14.7555458,22.8590301 14.7555458,22.2566191 C14.7555458,21.6542082 15.2469863,21.1627677 15.8493973,21.1627677 Z" id="?" stroke="#00D4BD" stroke-width="0.8" fill="#00D4BD"></path>
        </g>
    </g>
</svg>