<?xml version="1.0" encoding="UTF-8"?>
<svg width="60px" height="60px" viewBox="0 0 60 60" version="1.1" xmlns="http://www.w3.org/2000/svg" xmlns:xlink="http://www.w3.org/1999/xlink">
    <!-- Generator: Sketch 49.2 (51160) - http://www.bohemiancoding.com/sketch -->
    <title>icon/cda/a</title>
    <desc>Created with Sketch.</desc>
    <defs>
        <path d="M14.9185755,16.6009307 C11.4862733,15.5081503 9,12.2944253 9,8.5 C9,3.80557963 12.8055796,0 17.5,0 C18.2250312,0 18.9288605,0.0907758295 19.6007427,0.261582111 L36.2082984,3.02950807 C36.3201092,3.04814319 36.424601,3.08471753 36.5192474,3.1358386 C39.6247078,3.86219298 41.9375,6.64885293 41.9375,9.97569444 C41.9375,13.6856493 39.0613626,16.7238462 35.4171748,16.9821982 L35.4149306,17 L14.84375,17 L14.9185755,16.6009307 Z" id="path-1"></path>
        <circle id="path-2" cx="16.5" cy="7.5" r="6.5"></circle>
    </defs>
    <g id="icon/cda/a" stroke="none" stroke-width="1" fill="none" fill-rule="evenodd">
        <rect id="bound" fill="#D8D8D8" opacity="0" x="0" y="0" width="60" height="60"></rect>
        <g id="icon/cda" transform="translate(5.000000, 14.000000)">
            <g id="Combined-Shape">
                <use fill="#262D45" fill-rule="evenodd" xlink:href="#path-1"></use>
                <path stroke="#262D45" stroke-width="1.8" d="M13.8936827,17.1833794 C10.4349224,15.7476726 8.1,12.3496239 8.1,8.5 C8.1,3.30852335 12.3085234,-0.9 17.5,-0.9 C18.2906185,-0.9 19.0691453,-0.802188254 19.7487018,-0.62617242 L36.3562575,2.14175354 C36.5193549,2.16893644 36.6768597,2.21684312 36.8255325,2.28388887 C40.32911,3.1519979 42.8375,6.31028534 42.8375,9.97569444 C42.8375,13.8880609 39.9927576,17.1663161 36.2221586,17.792393 L36.2085928,17.9 L13.7593163,17.9 L13.8936827,17.1833794 Z"></path>
            </g>
            <path d="M11.004913,31.8 L18.995087,31.8 C18.9983495,31.8662555 19,31.932935 19,32 C19,34.209139 17.209139,36 15,36 C12.790861,36 11,34.209139 11,32 C11,31.932935 11.0016505,31.8662555 11.004913,31.8 Z M11.5351288,30 C12.2267476,28.8043973 13.5194353,28 15,28 C16.4805647,28 17.7732524,28.8043973 18.4648712,30 L11.5351288,30 Z" id="Combined-Shape" fill="#262D45"></path>
            <path d="M31.004913,31.8 L38.995087,31.8 C38.9983495,31.8662555 39,31.932935 39,32 C39,34.209139 37.209139,36 35,36 C32.790861,36 31,34.209139 31,32 C31,31.932935 31.0016505,31.8662555 31.004913,31.8 Z M31.5351288,30 C32.2267476,28.8043973 33.5194353,28 35,28 C36.4805647,28 37.7732524,28.8043973 38.4648712,30 L31.5351288,30 Z" id="Combined-Shape" fill="#262D45"></path>
            <circle id="Oval" fill="#00D4BD" cx="35" cy="9" r="5"></circle>
            <rect id="Rectangle-2" fill="#262D45" x="0" y="14" width="50" height="16" rx="8"></rect>
            <path d="M36.7617457,10.4883007 L35.5857211,9.31226321 C35.6058563,9.27463548 35.6224723,9.23485501 35.6351438,9.19336009 L37.2992332,9.19336009 C37.2583055,9.68451867 37.0628449,10.1324292 36.7617457,10.4883007 Z M34.6877344,9.58571203 C34.7253621,9.60586008 34.7651426,9.6224761 34.8066375,9.63513469 L34.8066375,11.299237 C34.3154661,11.2582835 33.8675684,11.0628358 33.5116969,10.7617366 L34.6877344,9.58571203 Z M33.2382481,7.51170074 L34.4142856,8.68773822 C34.3941375,8.72536595 34.3775215,8.76514642 34.3648629,8.80664134 L32.7007477,8.80664134 C32.7417012,8.31546987 32.9371489,7.86757222 33.2382481,7.51170074 Z M35.3122594,8.4142894 C35.2746317,8.39414135 35.2348512,8.37752533 35.1933563,8.36486674 L35.1933563,6.70075153 C35.6845278,6.74170504 36.1324254,6.9371527 36.4882969,7.23825191 L35.3122594,8.4142894 Z M37.3334578,6.66653981 C36.7101574,6.04326521 35.8814578,5.70000076 34.9999969,5.70000076 C34.118536,5.70000076 33.2898364,6.04326521 32.666536,6.66653981 C32.0432614,7.28984019 31.6999969,8.11853979 31.6999969,9.00000072 C31.6999969,9.88146164 32.0432614,10.7101612 32.666536,11.3334487 C33.2898364,11.9567362 34.118536,12.3000007 34.9999969,12.3000007 C35.8814578,12.3000007 36.7101574,11.9567362 37.3334578,11.3334487 C37.9567324,10.7101612 38.2999969,9.88146164 38.2999969,9.00000072 C38.2999969,8.11853979 37.9567324,7.28984019 37.3334578,6.66653981 Z" id="Fill-1" fill="#262D45"></path>
            <g id="Oval">
                <use fill="#262D45" fill-rule="evenodd" xlink:href="#path-2"></use>
                <circle stroke="#00D4BD" stroke-width="1.4" cx="16.5" cy="7.5" r="5.8"></circle>
            </g>
            <path d="M17.5,1.79999924 L35.1999969,4.70000076" id="Line" stroke="#00D4BD" stroke-width="1.4" stroke-linecap="round"></path>
            <rect id="Rectangle-4" fill="#00D4BD" x="14.5" y="6" width="4" height="2"></rect>
            <rect id="Rectangle-4" fill="#00D4BD" x="14.5" y="10" width="4" height="3"></rect>
            <rect id="Rectangle-5" fill="#00D4BD" x="11.5" y="14" width="10" height="1.79999995" rx="0.899999976"></rect>
            <rect id="Rectangle-5" fill="#00D4BD" x="30" y="14" width="10" height="1.79999995" rx="0.899999976"></rect>
        </g>
    </g>
</svg>