<?xml version="1.0" encoding="UTF-8"?>
<svg width="60px" height="60px" viewBox="0 0 60 60" version="1.1" xmlns="http://www.w3.org/2000/svg" xmlns:xlink="http://www.w3.org/1999/xlink">
    <!-- Generator: Sketch 49.2 (51160) - http://www.bohemiancoding.com/sketch -->
    <title>icon/cda/d</title>
    <desc>Created with Sketch.</desc>
    <defs>
        <circle id="path-1" cx="36" cy="11" r="5"></circle>
        <circle id="path-2" cx="16.5" cy="9.5" r="6.5"></circle>
        <path d="M17.5,3.79999924 L36.1999969,6.70000076" id="path-3"></path>
        <rect id="path-4" x="14.5" y="8" width="4" height="2"></rect>
        <rect id="path-5" x="14.5" y="12" width="4" height="3"></rect>
    </defs>
    <g id="icon/cda/d" stroke="none" stroke-width="1" fill="none" fill-rule="evenodd">
        <rect id="bound" fill="#D8D8D8" opacity="0" x="0" y="0" width="60" height="60"></rect>
        <g id="icon/cda" transform="translate(5.000000, 12.200000)">
            <path d="M11.004913,33.8 L18.995087,33.8 C18.9983495,33.8662555 19,33.932935 19,34 C19,36.209139 17.209139,38 15,38 C12.790861,38 11,36.209139 11,34 C11,33.932935 11.0016505,33.8662555 11.004913,33.8 Z M11.5351288,32 C12.2267476,30.8043973 13.5194353,30 15,30 C16.4805647,30 17.7732524,30.8043973 18.4648712,32 L11.5351288,32 Z" id="Combined-Shape" fill="#262D45"></path>
            <path d="M31.004913,33.8 L38.995087,33.8 C38.9983495,33.8662555 39,33.932935 39,34 C39,36.209139 37.209139,38 35,38 C32.790861,38 31,36.209139 31,34 C31,33.932935 31.0016505,33.8662555 31.004913,33.8 Z M31.5351288,32 C32.2267476,30.8043973 33.5194353,30 35,30 C36.4805647,30 37.7732524,30.8043973 38.4648712,32 L31.5351288,32 Z" id="Combined-Shape" fill="#262D45"></path>
            <g id="Group-2">
                <path d="M19.972944,0.498786914 L36.5042166,3.253999 C36.7181703,3.28965796 36.9225529,3.34877637 37.1151066,3.42832237 C40.9232024,4.40646562 43.7375,7.86242281 43.7375,11.9756944 C43.7375,13.4392697 43.3811922,14.8196247 42.7505879,16.0347484 C46.8169012,16.4131235 50,19.8348355 50,24 C50,28.418278 46.418278,32 42,32 L8,32 C3.581722,32 5.41083001e-16,28.418278 0,24 C-5.41083001e-16,19.581722 3.581722,16 8,16 L8.78981183,16 C7.78287977,14.4086905 7.2,12.5224147 7.2,10.5 C7.2,4.81146708 11.8114671,0.2 17.5,0.2 C18.3524674,0.2 19.1807469,0.303560491 19.972944,0.498786914 Z M12.4,16 C11.9029437,16 11.5,16.4029437 11.5,16.9 C11.5,17.3970562 11.9029437,17.8 12.4,17.8 L20.6,17.8 C21.0970563,17.8 21.5,17.3970562 21.5,16.9 C21.5,16.4029437 21.0970563,16 20.6,16 L12.4,16 Z M31.9,16 C31.4029437,16 31,16.4029437 31,16.9 C31,17.3970562 31.4029437,17.8 31.9,17.8 L40.1,17.8 C40.5970563,17.8 41,17.3970562 41,16.9 C41,16.4029437 40.5970563,16 40.1,16 L31.9,16 Z" id="Combined-Shape" fill="#262D45" fill-rule="nonzero"></path>
                <g id="Oval">
                    <use fill="#262D45" xlink:href="#path-1"></use>
                    <use fill-opacity="0.24" fill="#D6D6D6" xlink:href="#path-1"></use>
                </g>
                <path d="M37.7617457,12.4883007 L36.5857211,11.3122632 C36.6058563,11.2746355 36.6224723,11.234855 36.6351438,11.1933601 L38.2992332,11.1933601 C38.2583055,11.6845187 38.0628449,12.1324292 37.7617457,12.4883007 Z M35.6877344,11.585712 C35.7253621,11.6058601 35.7651426,11.6224761 35.8066375,11.6351347 L35.8066375,13.299237 C35.3154661,13.2582835 34.8675684,13.0628358 34.5116969,12.7617366 L35.6877344,11.585712 Z M34.2382481,9.51170074 L35.4142856,10.6877382 C35.3941375,10.725366 35.3775215,10.7651464 35.3648629,10.8066413 L33.7007477,10.8066413 C33.7417012,10.3154699 33.9371489,9.86757222 34.2382481,9.51170074 Z M36.3122594,10.4142894 C36.2746317,10.3941413 36.2348512,10.3775253 36.1933563,10.3648667 L36.1933563,8.70075153 C36.6845278,8.74170504 37.1324254,8.9371527 37.4882969,9.23825191 L36.3122594,10.4142894 Z M38.3334578,8.66653981 C37.7101574,8.04326521 36.8814578,7.70000076 35.9999969,7.70000076 C35.118536,7.70000076 34.2898364,8.04326521 33.666536,8.66653981 C33.0432614,9.28984019 32.6999969,10.1185398 32.6999969,11.0000007 C32.6999969,11.8814616 33.0432614,12.7101612 33.666536,13.3334487 C34.2898364,13.9567362 35.118536,14.3000007 35.9999969,14.3000007 C36.8814578,14.3000007 37.7101574,13.9567362 38.3334578,13.3334487 C38.9567324,12.7101612 39.2999969,11.8814616 39.2999969,11.0000007 C39.2999969,10.1185398 38.9567324,9.28984019 38.3334578,8.66653981 Z" id="Fill-1" fill="#262D45"></path>
                <g id="Oval">
                    <use fill="#262D45" fill-rule="evenodd" xlink:href="#path-2"></use>
                    <circle stroke="#262D45" stroke-width="1.4" cx="16.5" cy="9.5" r="5.8"></circle>
                    <circle stroke-opacity="0.24" stroke="#FFFFFF" stroke-width="1.4" cx="16.5" cy="9.5" r="5.8"></circle>
                </g>
                <g id="Line" stroke-linecap="round" stroke-width="1.4">
                    <use stroke="#262D45" xlink:href="#path-3"></use>
                    <use stroke-opacity="0.24" stroke="#D6D6D6" xlink:href="#path-3"></use>
                </g>
                <g id="Rectangle-4">
                    <use fill="#262D45" xlink:href="#path-4"></use>
                    <use fill-opacity="0.24" fill="#D6D6D6" xlink:href="#path-4"></use>
                </g>
                <g id="Rectangle-4">
                    <use fill="#262D45" xlink:href="#path-5"></use>
                    <use fill-opacity="0.24" fill="#D6D6D6" xlink:href="#path-5"></use>
                </g>
            </g>
        </g>
    </g>
</svg>