<?xml version="1.0" encoding="UTF-8"?>
<svg width="64px" height="64px" viewBox="0 0 64 64" version="1.1" xmlns="http://www.w3.org/2000/svg" xmlns:xlink="http://www.w3.org/1999/xlink">
    <!-- Generator: Sketch 49.2 (51160) - http://www.bohemiancoding.com/sketch -->
    <title>icon/n2bottle</title>
    <desc>Created with Sketch.</desc>
    <defs></defs>
    <g id="icon/n2bottle" stroke="none" stroke-width="1" fill="none" fill-rule="evenodd">
        <rect id="bound" fill="#D8D8D8" opacity="0" x="0" y="0" width="64" height="64"></rect>
        <g transform="translate(27.000000, 9.000000)" fill="#262D45" id="Combined-Shape">
            <path d="M3.5,4 L6.5,4 C7.05228475,4 7.5,4.44771525 7.5,5 L7.5,8 C7.5,8.55228475 7.05228475,9 6.5,9 L3.5,9 C2.94771525,9 2.5,8.55228475 2.5,8 L2.5,5 C2.5,4.44771525 2.94771525,4 3.5,4 Z M2.25460652,-4.67696131e-17 L7.74540794,4.67696131e-17 C8.15835849,-2.9088172e-17 8.32546975,0.0464128056 8.48843271,0.133566352 C8.65139567,0.220719898 8.77928996,0.348614185 8.86644351,0.511577148 C8.95359705,0.674540111 9.00000986,0.841651367 9.00000986,1.25460192 L9.00000986,1.74539808 C9.00000986,2.15834863 8.95359705,2.32545989 8.86644351,2.48842285 C8.77928996,2.65138581 8.65139567,2.7792801 8.48843271,2.86643365 C8.32546975,2.95358719 8.15835849,3 7.74540794,3 L2.25460652,3 C1.84165597,3 1.67454471,2.95358719 1.51158175,2.86643365 C1.34861879,2.7792801 1.2207245,2.65138581 1.13357095,2.48842285 C1.04641741,2.32545989 1.0000046,2.15834863 1.0000046,1.74539808 L1.0000046,1.25460192 C1.0000046,0.841651367 1.04641741,0.674540111 1.13357095,0.511577148 C1.2207245,0.348614185 1.34861879,0.220719898 1.51158175,0.133566352 C1.67454471,0.0464128056 1.84165597,2.9088172e-17 2.25460652,-4.67696131e-17 Z M1.0000046,10 L9.0000046,10 C9.55228935,10 10.0000046,10.4477153 10.0000046,11 L10.0000046,13 C10.0000046,13.5522847 9.55228935,14 9.0000046,14 L1.0000046,14 C0.447719851,14 4.60063347e-06,13.5522847 4.60063347e-06,13 L4.60063347e-06,11 C4.60063347e-06,10.4477153 0.447719851,10 1.0000046,10 Z"></path>
        </g>
        <path d="M32,19.9999956 L32.0000146,19.9999912 C38.0751468,19.9999912 43.0000146,24.9248589 43.0000146,30.9999912 C43.0000146,30.9999926 43.0000146,30.9999941 43.0000146,30.9999956 L43.0000161,51.6150684 C43.0000157,52.6733682 42.4424153,53.6533754 41.5326448,54.1940381 C39.5067226,55.3980127 36.3291769,56 32.0000078,56 C27.6708318,56 24.4932801,55.3980108 22.4673526,54.1940324 L22.4673583,54.1940228 C21.5575954,53.6533644 21,52.6733652 21,51.6150741 L21,30.9999956 C21,24.9248633 25.9248678,19.9999956 32,19.9999956 Z" id="Rectangle" fill="#262D45"></path>
        <path d="M25.4988632,44.7910042 L35.3569151,39.9451892 L35.3569151,39.8923258 L25.4988632,39.8923258 L25.4988632,38.5002553 L37.812128,38.5002553 L37.812128,40.1918852 L27.9168759,45.0553214 L27.9168759,45.1081848 L37.812128,45.1081848 L37.812128,46.5002553 L25.4988632,46.5002553 L25.4988632,44.7910042 Z M34.7339624,35.9337628 C34.0658633,35.8643219 33.5260962,35.6309266 33.114645,35.23357 C32.7031937,34.8362133 32.4974712,34.2941962 32.4974712,33.6075022 C32.4974712,33.268013 32.55654,32.9671067 32.6746795,32.7047741 C32.792819,32.4424416 32.9516938,32.2225485 33.1513088,32.0450883 C33.3509237,31.867628 33.5770149,31.732606 33.8295889,31.640018 C34.082163,31.5474301 34.3428806,31.5011368 34.6117498,31.5011368 C34.8480287,31.5011368 35.0598619,31.5300701 35.2472555,31.5879376 C35.4346491,31.645805 35.6016714,31.7268183 35.7483273,31.8309797 C35.8949832,31.9351412 36.0314526,32.056661 36.1577396,32.195543 C36.2840267,32.3344249 36.4042012,32.484878 36.5182669,32.646907 C36.7463983,32.9478178 36.9663789,33.2583686 37.1782152,33.5785686 C37.3900515,33.8987686 37.6304006,34.2054616 37.8992697,34.4986568 C37.9970403,34.606676 38.10092,34.6954048 38.210912,34.7648458 C38.3209039,34.8342868 38.4573733,34.8921534 38.6203243,34.9384473 L38.6203243,31.6863118 L39.5002553,31.6863118 L39.5002553,35.8643222 L38.840307,35.8643222 C38.5632903,35.8643222 38.2923884,35.7755934 38.027593,35.5981332 C37.7627976,35.420673 37.5061537,35.198851 37.2576534,34.9326606 C37.0091531,34.6664703 36.768804,34.3732795 36.5365988,34.0530795 C36.3043937,33.7328795 36.0783025,33.4300442 35.8583187,33.1445647 C35.6953677,32.9285262 35.520198,32.7568552 35.3328043,32.6295468 C35.1454107,32.5022384 34.9050616,32.4385851 34.6117498,32.4385851 C34.1962247,32.4385851 33.8723645,32.5466028 33.6401593,32.7626413 C33.4079541,32.9786799 33.2918533,33.2602973 33.2918533,33.6075022 C33.2918533,34.0318636 33.4201753,34.3674899 33.6768231,34.6143911 C33.9334709,34.8612923 34.2858472,34.9847411 34.7339624,34.9847411 L34.7339624,35.9337628 Z" id="Combined-Shape" stroke="#00D4BD" stroke-width="0.6" fill="#00D4BD" transform="translate(32.499559, 39.000696) rotate(-270.000000) translate(-32.499559, -39.000696) "></path>
        <circle id="Oval-5" stroke="#262D45" stroke-width="1.8" cx="49" cy="26" r="2"></circle>
        <path d="M32,16 C36.6666667,16 40.5,16 43.5,16 C48,16 48.5,17 48.5,21 C48.5,23.6666667 48.5,24.6666667 48.5,24" id="Path-4" stroke="#262D45" stroke-width="1.8" stroke-linecap="round"></path>
    </g>
</svg>