<?xml version="1.0" encoding="UTF-8"?>
<svg width="64px" height="64px" viewBox="0 0 64 64" version="1.1" xmlns="http://www.w3.org/2000/svg" xmlns:xlink="http://www.w3.org/1999/xlink">
    <!-- Generator: Sketch 49.2 (51160) - http://www.bohemiancoding.com/sketch -->
    <title>icon/n2open</title>
    <desc>Created with Sketch.</desc>
    <defs></defs>
    <g id="icon/n2open" stroke="none" stroke-width="1" fill="none" fill-rule="evenodd">
        <rect id="bound" fill="#D8D8D8" opacity="0" x="0" y="0" width="64" height="64"></rect>
        <path d="M9.8040201,27.7793575 C10.2503822,27.7793575 10.6076342,27.422207 10.6076342,26.9757434 C10.6076342,18.2962439 17.6066282,11.2159548 26.2536502,11.0780271 L25.1574345,12.1741413 C24.8406778,12.4909996 24.8406778,12.9940957 25.1574345,13.3108524 C25.3117024,13.4650189 25.5230089,13.546314 25.725993,13.546314 C25.9289771,13.546314 26.1398776,13.4650189 26.2940441,13.3108524 L28.7624325,10.842464 C29.0791892,10.5257073 29.0791892,10.0226112 28.7624325,9.70585444 L26.2940441,7.23756754 C25.9776933,6.92081082 25.4741912,6.92081082 25.1574345,7.23756754 C24.8406778,7.55432426 24.8406778,8.05782637 25.1574345,8.37417712 L26.2615666,9.47871521 C16.721313,9.60040419 9,17.4030123 9,26.9757434 C9,27.422207 9.35725205,27.7793575 9.8040201,27.7793575 Z" id="Fill-1" stroke="#262D45" stroke-width="0.2" fill="#262D45"></path>
        <path d="M52.4158964,35.3300018 C51.9694874,35.3300018 51.6121977,35.6876975 51.6121977,36.1341066 C51.6121977,44.8145201 44.6124667,51.8956563 35.964534,52.0334971 L37.0608652,50.9372674 C37.3772493,50.6204773 37.3772493,50.1169222 37.0608652,49.8004366 C36.7440751,49.4836465 36.24052,49.4836465 35.9240344,49.8004366 L33.4554876,52.269085 C33.3008989,52.4233691 33.2200012,52.6263746 33.2200012,52.8371958 C33.2200012,53.0485246 33.3008989,53.2515301 33.4554876,53.4058142 L35.9240344,55.8744626 C36.0783186,56.0286452 36.2892413,56.1099489 36.4922468,56.1099489 C36.6952523,56.1099489 36.906581,56.0286452 37.0608652,55.8744626 C37.3772493,55.5576725 37.3772493,55.0541174 37.0608652,54.7377333 L35.9562108,53.6330789 C45.4974691,53.5113771 53.2200012,45.7079473 53.2200012,36.1341066 C53.2200012,35.6876975 52.8627115,35.3300018 52.4158964,35.3300018" id="Fill-3" stroke="#262D45" stroke-width="0.2" fill="#262D45"></path>
        <g id="wheel" transform="translate(17.000000, 17.000000)" fill="#262D45">
            <path d="M12.4899317,21.0628744 C9.1395459,19.6804979 7.55443145,15.8406371 8.93691929,12.490199 C10.3200719,9.13922913 14.1597398,7.55462177 17.5101255,8.9371312 C20.8605113,10.3201725 22.4456257,14.1599003 21.0630049,17.5104713 C19.6799853,20.8609094 15.8403174,22.4460486 12.4899317,21.0628744 M29.1660046,18.2290037 L27.2740826,17.447076 C27.6020528,15.8156464 27.5926408,14.1650306 27.2740826,12.5817475 L29.1758992,11.799699 C29.8513874,11.5202323 30.1799609,10.7381838 29.8998951,10.0623231 L29.0406326,7.9963685 C28.7606876,7.32086977 27.9786513,6.99229117 27.3032838,7.27236129 L25.4013466,8.05428908 C24.503471,6.71282439 23.3453188,5.53486465 21.9647793,4.60813542 L22.7466949,2.71618392 C23.02664,2.04020252 22.7080818,1.25827473 22.0321109,0.978204607 L19.9666713,0.119411387 C19.2907004,-0.160538067 18.5087849,0.158145773 18.2288398,0.833523833 L17.4468035,2.72559601 C15.8155201,2.39750008 14.1648094,2.40691217 12.5820337,2.72559601 L11.7999975,0.824111739 C11.5200524,0.148251008 10.7381368,-0.179844926 10.062166,0.100104528 L7.99672631,0.958897748 C7.32075547,1.23896787 6.99278532,2.02089566 7.2727304,2.69687706 L8.05416332,4.59824066 C6.71271957,5.49625094 5.5348989,6.65478314 4.60818414,8.03498222 L2.7161415,7.25293376 C2.04029133,6.97298431 1.25825508,7.29166815 0.978792663,7.96752888 L0.119530189,10.0334835 C-0.160535561,10.7089822 0.158143304,11.4910306 0.833631484,11.7709801 L2.72555345,12.5529079 C2.39758331,14.1843375 2.40747792,15.8350739 2.72555345,17.418357 L0.824098871,18.2002848 C0.148248693,18.4802342 -0.179842118,19.2622827 0.100102965,19.9377814 L0.959486106,22.003736 C1.23943119,22.6791141 2.0208641,23.0076927 2.69683495,22.7277432 L4.59877219,21.9456948 C5.49616512,23.2876421 6.6547999,24.4651192 8.03485676,25.3918484 L7.25342385,27.2837999 C6.9733581,27.9597813 7.2915543,28.7417091 7.96752514,29.0217792 L10.0334475,29.8810551 C10.708815,30.1605219 11.4908512,29.8424414 11.7707963,29.16646 L12.5528325,27.2743878 C14.184116,27.6024838 15.8348267,27.5930717 17.418085,27.2743878 L18.2000006,29.1758721 C18.4800664,29.8518535 19.2619819,30.1798288 19.9374701,29.8998793 L22.0033924,29.0410861 C22.6792426,28.7611366 23.0073334,27.9790882 22.7273883,27.3032274 L21.9453521,25.4017432 C23.2873992,24.5037329 24.4647372,23.3456834 25.3914519,21.9650016 L27.2839772,22.7470501 C27.9593448,23.0269995 28.741381,22.7083157 29.0213261,22.032455 L29.8805886,19.9669831 C30.1700663,19.2811069 29.8419754,18.5090739 29.1660046,18.2290037" id="Fill-1"></path>
        </g>
    </g>
</svg>