<?xml version="1.0" encoding="UTF-8"?>
<svg width="12px" height="12px" viewBox="0 0 12 12" version="1.1" xmlns="http://www.w3.org/2000/svg" xmlns:xlink="http://www.w3.org/1999/xlink">
    <!-- Generator: Sketch 49.2 (51160) - http://www.bohemiancoding.com/sketch -->
    <title>icon/bullet/green</title>
    <desc>Created with Sketch.</desc>
    <defs></defs>
    <g id="icon/bullet/green" stroke="none" stroke-width="1" fill="none" fill-rule="evenodd">
        <g fill="#00D4BD" id="Fill-2">
            <path d="M6,0 C2.688,0 0,2.688 0,6 C0,9.312 2.688,12 6,12 C9.312,12 12,9.312 12,6 C12,2.688 9.312,0 6,0 M6,8.7 C4.506,8.7 3.3,7.494 3.3,6 C3.3,4.506 4.506,3.3 6,3.3 C7.494,3.3 8.7,4.506 8.7,6 C8.7,7.494 7.494,8.7 6,8.7 M6,5.4 C5.67,5.4 5.4,5.67 5.4,6 C5.4,6.33 5.67,6.6 6,6.6 C6.33,6.6 6.6,6.33 6.6,6 C6.6,5.67 6.33,5.4 6,5.4"></path>
        </g>
    </g>
</svg>