<?xml version="1.0" encoding="UTF-8"?>
<svg width="32px" height="32px" viewBox="0 0 32 32" version="1.1" xmlns="http://www.w3.org/2000/svg" xmlns:xlink="http://www.w3.org/1999/xlink">
    <!-- Generator: Sketch 49.2 (51160) - http://www.bohemiancoding.com/sketch -->
    <title>icon/account//a</title>
    <desc>Created with Sketch.</desc>
    <defs></defs>
    <g id="icon/account//a" stroke="none" stroke-width="1" fill="none" fill-rule="evenodd">
        <g id="icon/account">
            <rect id="bound" fill-opacity="0" fill="#FFFFFF" x="0" y="0" width="32" height="32"></rect>
            <path d="M23.427215,24.6479874 L8.57278499,24.6479874 L8.57278499,20.9991262 C8.57278499,20.0764257 8.93400128,19.1746956 9.53899924,18.58228 C9.84831362,18.2782082 10.357896,17.911225 11.0850469,17.9321955 C11.4861071,17.9426807 12.7286072,17.9269529 14.2395293,17.9217103 C16.4970001,17.911225 19.3442652,17.8954972 20.8174404,17.8954972 C22.6104153,17.8954972 23.427215,19.3581872 23.427215,20.7160249 L23.427215,24.6479874 Z M20.8174404,16.3227122 C19.3426924,16.3227122 16.4922817,16.33844 14.2321897,16.3489253 C12.732277,16.3541679 11.4934467,16.3594105 11.1065416,16.3594105 C11.1049688,16.3594105 11.1028718,16.3594105 11.1007747,16.3594105 C10.1266966,16.3436826 9.17883148,16.7316363 8.43752548,17.46036 C7.53736821,18.3411196 7,19.662259 7,20.9991262 L7,25.4343799 C7,25.8642745 7.35177958,26.2207724 7.7863925,26.2207724 L24.2136075,26.2207724 C24.6476962,26.2207724 25,25.8642745 25,25.4343799 L25,20.7160249 C25,18.5875226 23.5341644,16.3227122 20.8174404,16.3227122 Z" id="account" fill="#00D4BD"></path>
            <path d="M16.0333111,16.4654816 C14.0579283,16.4654816 12.4421563,14.8704246 12.4421563,12.9203672 L12.4421563,11.0869319 C12.4421563,9.13687451 14.0579283,7.54181755 16.0333111,7.54181755 C18.0084462,7.54181755 19.6244658,9.13687451 19.6244658,11.0869319 L19.6244658,12.9203672 C19.6244658,14.8704246 18.0084462,16.4654816 16.0333111,16.4654816 Z" id="Stroke-1218" stroke="#00D4BD" stroke-width="1.8" stroke-linecap="round" stroke-linejoin="round"></path>
        </g>
    </g>
</svg>