<?xml version="1.0" encoding="UTF-8"?>
<svg width="32px" height="32px" viewBox="0 0 32 32" version="1.1" xmlns="http://www.w3.org/2000/svg" xmlns:xlink="http://www.w3.org/1999/xlink">
    <!-- Generator: Sketch 49.2 (51160) - http://www.bohemiancoding.com/sketch -->
    <title>icon/password/n</title>
    <desc>Created with Sketch.</desc>
    <defs></defs>
    <g id="icon/password/n" stroke="none" stroke-width="1" fill="none" fill-rule="evenodd">
        <g id="icon/password_a" fill="#FFFFFF">
            <rect id="bound" fill-opacity="0" x="0" y="0" width="32" height="32"></rect>
            <path d="M15.2994957,20.4210045 L15.2994957,21.2609491 C15.2994957,21.6526086 15.6161265,21.9687675 16.0073141,21.9687675 C16.3980299,21.9687675 16.7151326,21.6526086 16.7151326,21.2609491 L16.7151326,20.4162857 C17.1487893,20.1661899 17.4451293,19.7037485 17.4451293,19.1705253 C17.4451293,18.3777686 16.8000708,17.7312944 16.0073141,17.7312944 C15.2140856,17.7312944 14.569027,18.3777686 14.569027,19.1705253 C14.569027,19.6943109 14.8521544,20.1661899 15.2994957,20.4210045 M22.5843631,23.4929366 C22.5843631,23.662813 22.5447253,25.1775445 21.16967,25.2341699 C19.1174684,25.3143894 10.959153,25.2436075 10.857699,25.2388887 C10.7317073,25.2388887 9.62656679,25.1775445 9.41563689,23.2003716 L9.41563689,14.9991152 L22.5843631,14.9991152 L22.5843631,23.4929366 Z M15.9790014,6.41563689 C19.9545816,6.41563689 20.1824992,9.71407084 20.1952399,10.0679801 L20.1952399,13.5834783 L11.7632347,13.5834783 L11.7627629,10.2614504 C11.7670098,10.1010116 11.9038547,6.41563689 15.9790014,6.41563689 Z M23.2921816,13.5834783 L21.6108768,13.5834783 L21.6104049,10.0491049 C21.5660483,8.30315274 20.3316129,5 15.9790014,5 C11.625918,5 10.3919545,8.41640369 10.3475978,10.2425753 L10.3475978,13.5834783 L8.70781844,13.5834783 C8.31710266,13.5834783 8,13.8996372 8,14.2912968 L8,23.2381219 C8,23.2617159 8.00141564,23.2853098 8.00377503,23.3089038 C8.27699295,26.0316454 10.0205857,26.7064323 10.8633615,26.6545256 C11.0780665,26.6592444 14.3689504,26.6875571 17.2728935,26.6875571 C18.9334356,26.6875571 20.467986,26.6781196 21.2272392,26.6498068 C23.4200608,26.5601498 24,24.5452266 24,23.4929366 L24,14.2912968 C24,13.8996372 23.6828973,13.5834783 23.2921816,13.5834783 Z" id="lock" fill-opacity="0.4"></path>
        </g>
    </g>
</svg>