<?xml version="1.0" encoding="UTF-8"?>
<svg width="30px" height="18px" viewBox="0 0 30 18" version="1.1" xmlns="http://www.w3.org/2000/svg" xmlns:xlink="http://www.w3.org/1999/xlink">
    <!-- Generator: Sketch 49.2 (51160) - http://www.bohemiancoding.com/sketch -->
    <title>icon/meter/alert</title>
    <desc>Created with Sketch.</desc>
    <defs></defs>
    <g id="icon/meter/alert" stroke="none" stroke-width="1" fill="none" fill-rule="evenodd">
        <g id="icon/meter/n" fill="#FFFFFF">
            <path d="M16.0506522,3.87925706 C16.7726087,3.94503844 17.4003261,3.40700564 17.4616304,2.68668313 C17.5229348,1.96636062 16.9907609,1.33243754 16.2733696,1.27058341 C15.8523913,1.23458365 15.4242391,1.21625649 15,1.21625649 C6.72913043,1.21625649 0,8.08468378 0,16.5272825 C0,17.2502231 0.584021739,17.8363647 1.30434783,17.8363647 C2.02467391,17.8363647 2.60869565,17.2502231 2.60869565,16.5272825 C2.60869565,9.52827423 8.1675,3.83442099 15,3.83442099 C15.3502174,3.83442099 15.7036957,3.84947544 16.0506522,3.87925706 M25.9568478,6.0700062 C25.4693478,5.53786427 24.6443478,5.50317359 24.1138043,5.99244308 C23.583587,6.48203984 23.5490217,7.31003436 24.0365217,7.84217629 C26.2001087,10.2034334 27.3913043,13.2876312 27.3913043,16.5272825 C27.3913043,17.2502231 27.9753261,17.8363647 28.6956522,17.8363647 C29.4159783,17.8363647 30,17.2502231 30,16.5272825 C30,12.6294901 28.5642391,8.91595101 25.9568478,6.0700062 M23.5690769,2.09268706 L17.3492171,15.7614694 C16.8005854,17.164151 15.8452149,18 14.7858324,18 C13.9267694,18 13.1710765,17.5542575 12.7643378,16.8077533 C12.3081612,15.9705952 12.356957,14.9066386 12.8917847,14.0302081 L12.8917847,14.0302081 L21.0320162,0.694914489 C21.4358657,0.0338279534 22.274062,-0.192643276 22.9456463,0.17717246 C23.6172307,0.547315465 23.890423,1.38643719 23.5690769,2.09268706" id="meter"></path>
        </g>
    </g>
</svg>